<svg width="176" height="32" viewBox="0 0 176 32" fill="none" xmlns="http://www.w3.org/2000/svg">
<path d="M49.8735 2.29395H49.3516V28.6447H49.8735V2.29395Z" fill="#00C48F"/>
<path d="M0 24.6999V23.9474H2.87662C3.01013 23.9474 3.10723 23.8382 3.10723 23.7168V8.14421C3.10723 8.0107 2.99799 7.90146 2.87662 7.90146H0V7.14893H12.0162V7.90146H8.81192C8.6784 7.90146 8.5813 8.0107 8.5813 8.14421V23.7046C8.5813 23.8382 8.69054 23.9353 8.81192 23.9353H9.55231C14.6865 23.9353 17.1747 22.1632 17.1747 18.534V18.0121H18.2429V24.6999H0Z" fill="#00C48F"/>
<path d="M37.5174 24.6999L24.081 10.2683C24.0325 10.2197 23.9718 10.1955 23.9111 10.1955H23.8261C23.6926 10.1955 23.5955 10.3047 23.5955 10.4261V21.9932C23.5955 23.8017 24.8336 23.9474 26.5935 23.9474H26.9334V24.6999H19.7115V23.9474H20.3912C21.3986 23.9474 22.7459 23.7289 22.7459 21.8719V10.1712C22.7459 8.77537 21.3743 7.9136 20.112 7.9136H19.8207V7.16106H28.4991L38.3913 17.7329C38.4398 17.7815 38.5005 17.8058 38.5612 17.8058H38.6462C38.7797 17.8058 38.8768 17.6965 38.8768 17.563V9.85562C38.8768 8.04711 37.6388 7.90146 35.8788 7.90146H35.5389V7.14893H42.7851V7.90146H42.0811C41.4985 7.90146 39.7507 7.90146 39.7507 9.97699V24.6878H37.5174V24.6999Z" fill="#00C48F"/>
<path d="M57.6506 15.9732C57.6506 10.3413 61.4254 6.76074 67.7855 6.76074C69.327 6.76074 71.8759 6.96708 73.4902 7.54969L73.5266 13.1573H69.6061L69.2663 10.9482C68.7565 10.8754 68.2346 10.839 67.7248 10.8511C65.2851 10.8511 63.6344 12.5989 63.6344 15.6576C63.6344 19.129 65.2851 20.9132 68.271 20.9132C69.8367 20.8525 71.4025 20.6583 72.944 20.3306L73.5266 24.2753C71.4753 24.8944 69.3512 25.2342 67.2029 25.2706C60.9884 25.2828 57.6506 21.9813 57.6506 15.9732Z" fill="#00C48F"/>
<path d="M74.3519 20.0876C74.3519 15.3782 79.9474 14.48 85.0088 14.3829V13.2541C85.0088 11.7733 84.0863 11.0208 82.1928 11.0208C80.1901 11.0693 78.1996 11.4334 76.3182 12.1253L75.153 8.10774C77.18 7.31879 79.9595 6.79688 83.5765 6.79688C87.5213 6.79688 90.8955 8.31408 90.8955 13.3269V18.7888L91.0654 21.362L92.0122 21.3863V24.6877L87.0115 25.0761H85.8463L85.5428 22.6001C84.3776 24.178 81.9379 25.2825 79.8017 25.2825C76.0391 25.2825 74.3519 23.1827 74.3519 20.0876ZM85.0088 20.5003V17.0653C81.9137 17.0653 80.2994 17.8907 80.2994 19.5778C80.2994 21.1193 81.3675 21.5684 82.4599 21.5684C83.4187 21.5684 84.3291 21.18 85.0088 20.5003Z" fill="#00C48F"/>
<path d="M93.1167 21.2652L94.8645 21.1317V10.9118L93.0439 10.8754V7.23411L99.7438 6.95494L100.12 7.25838L100.399 9.35819C102.56 7.7803 104.453 6.8457 106.589 6.8457C109.272 6.8457 110.813 7.9745 111.566 9.56453C113.908 7.74389 115.899 6.8457 117.987 6.8457C122.004 6.8457 123.521 9.32178 123.521 12.2469V21.2531H125.269V24.8944H115.96V21.2531L117.683 21.0831V13.3879C117.683 11.0453 115.863 10.7055 115.037 10.7055C113.957 10.6933 112.889 11.0332 112.015 11.6643C112.1 12.162 112.136 12.6718 112.124 13.1815V21.2531H113.872V24.8944H104.562V21.2531L106.286 21.0831V13.3151C106.25 11.0453 104.465 10.7055 103.64 10.7055C102.596 10.7176 101.589 11.0332 100.715 11.6037V21.2652H102.572V24.9065H93.1167V21.2652Z" fill="#00C48F"/>
<path d="M125.688 28.3709L127.375 28.2374V10.917L125.555 10.8806V7.23927L132.255 6.9601L132.631 7.26355L132.837 8.74434C134.148 7.84615 136.345 6.81445 138.505 6.81445C143.7 6.81445 145.618 10.7956 145.618 15.2987C145.618 21.0762 142.389 25.2636 136.551 25.2636C135.422 25.2394 134.306 25.0694 133.213 24.7539V28.3587H135.896V32H125.688V28.3709ZM139.537 16.0997C139.537 12.7255 138.615 10.9777 135.823 10.9777C134.913 10.9777 134.027 11.1961 133.213 11.5967V20.6635C133.99 21.0276 134.84 21.1975 135.689 21.149C138.651 21.1611 139.537 18.6486 139.537 16.0997Z" fill="#00C48F"/>
<path d="M146.551 16.3859C146.551 10.6448 149.682 6.76074 156.006 6.76074C161.99 6.76074 165.425 10.1957 165.425 15.7304C165.425 21.7143 161.88 25.3556 155.702 25.3556C149.718 25.3434 146.551 22.0906 146.551 16.3859ZM159.368 16.0339C159.368 12.3198 158.203 10.7419 155.969 10.7419C153.906 10.7419 152.631 12.2591 152.631 16.0339C152.631 20.0879 153.76 21.3987 155.969 21.3987C158.178 21.3987 159.368 19.9179 159.368 16.0339Z" fill="#00C48F"/>
<path d="M166.403 9.07068C166.769 8.24112 167.07 7.65576 167.305 7.23692C167.711 6.23005 168.554 5.45948 169.598 5.15445C170.355 4.86749 171.133 4.64262 171.925 4.45344C173.052 4.17299 174.086 3.97056 174.358 3.9168C174.275 4.17661 173.888 5.15077 173.406 6.23715C173.105 6.9173 172.822 7.48705 172.585 7.9401C172.395 8.33703 172.14 8.69378 171.845 9.00403C171.845 9.00403 171.845 9.00404 171.836 9.01184C171.557 9.34069 171.232 9.61376 170.869 9.82324C170.514 10.042 170.137 10.2158 169.73 10.3353C169.241 10.5079 168.633 10.67 167.91 10.8481C166.774 11.1363 165.74 11.3388 165.46 11.3832C165.535 11.1141 165.931 10.1322 166.403 9.07068Z" fill="#00C48F"/>
<path d="M164.502 7.09665C164.17 6.52349 163.945 6.08889 163.8 5.75821C163.375 5.08198 163.28 4.24871 163.543 3.4877C163.698 2.91689 163.902 2.3548 164.131 1.80312C164.453 1.01364 164.781 0.308954 164.865 0.120456C164.986 0.282396 165.397 0.935255 165.839 1.68332C166.115 2.15086 166.327 2.5742 166.497 2.91529C166.651 3.19666 166.758 3.50566 166.816 3.81806C166.886 4.1175 166.908 4.43244 166.882 4.75079C166.855 5.05702 166.791 5.3658 166.689 5.65291C166.581 6.01354 166.417 6.4511 166.209 6.96474C165.888 7.76633 165.56 8.47102 165.463 8.64825C165.354 8.48546 164.931 7.83346 164.502 7.09665Z" fill="#00C48F"/>
</svg>
